<svg style="position: absolute; width: 0; height: 0;" width="0" height="0" version="1.1" xmlns="http://www.w3.org/2000/svg" xmlns:xlink="http://www.w3.org/1999/xlink"><defs><symbol id="autocomplete" viewBox="0 -212 1024 1024"><path d="M384 230 l65 0 l0 -65 l-65 0 l0 65 ZM256 165 l-63 0 l0 -63 l63 0 l0 63 ZM384 165 l-63 0 l0 -63 l63 0 l0 63 ZM193 165 l0 65 l-65 0 l0 -65 l65 0 ZM193 230 l63 0 l0 63 l-63 0 l0 -63 ZM321 230 l63 0 l0 63 l-63 0 l0 -63 ZM321 165 l0 65 l-65 0 l0 -65 l65 0 ZM128 677 l65 0 l0 65 l-65 0 l0 -65 ZM256 677 l65 0 l0 65 l-65 0 l0 -65 ZM384 677 l65 0 l0 65 l-65 0 l0 -65 ZM577 742 l-65 0 l0 -65 l65 0 l0 65 ZM1024 70 q0 -26 -13.5 -48 q-13.5 -22 -35.5 -35 q-22 -13 -47 -13 l-351 0 l0 -65 l128 0 l0 -63 l-321 0 l0 63 l128 0 l0 65 l-416 0 q-25 0 -47 13 q-22 13 -35.5 35 q-13.5 22 -13.5 48 l0 736 q0 29 18 46.5 q18 17.5 47 17.5 l768 0 q28 0 45.5 -17.5 q17.5 -17.5 17.5 -46.5 l0 -385 l32 0 q25 0 47 -13.5 q22 -13.5 35.5 -35 q13.5 -21.5 13.5 -46.5 l0 -256 ZM833 806 l-768 0 l0 -192 l384 0 l384 0 l0 192 ZM128 549 l0 -63 l65 0 l0 63 l-65 0 ZM256 549 l0 -63 l65 0 l0 63 l-65 0 ZM961 326 q0 14 -9.5 23 q-9.5 9 -23.5 9 l-351 0 l0 63 l128 0 l0 65 l-321 0 l0 -65 l128 0 l0 -63 l-416 0 q-14 0 -22.5 -9 q-8.5 -9 -8.5 -23 l0 -256 q0 -14 8.5 -23.5 q8.5 -9.5 22.5 -9.5 l416 0 l0 65 l-63 0 l0 63 l63 0 l0 65 l-63 0 l0 63 l63 0 l0 65 l65 0 l0 -321 l351 0 q14 0 23.5 9.5 q9.5 9.5 9.5 23.5 l0 256 Z"></path></symbol><symbol id="date" viewBox="0 -212 1024 1024"><path d="M73 632 l165 0 l0 165 l-165 0 l0 -165 ZM274 632 l183 0 l0 165 l-183 0 l0 -165 ZM73 413 l165 0 l0 182 l-165 0 l0 -182 ZM274 413 l183 0 l0 182 l-183 0 l0 -182 ZM73 211 l165 0 l0 165 l-165 0 l0 -165 ZM494 632 l183 0 l0 165 l-183 0 l0 -165 ZM274 211 l183 0 l0 165 l-183 0 l0 -165 ZM713 632 l165 0 l0 165 l-165 0 l0 -165 ZM494 413 l183 0 l0 182 l-183 0 l0 -182 ZM293 102 q-1 8 -6 13 q-5 5 -13 5 l-36 0 q-7 1 -13 -5 q-6 -6 -6 -13 l0 -165 q1 -6 6 -12.5 q5 -6.5 13 -6.5 l36 0 q7 1 13 6.5 q6 5.5 6 12.5 l0 165 ZM713 413 l165 0 l0 182 l-165 0 l0 -182 ZM494 211 l183 0 l0 165 l-183 0 l0 -165 ZM713 211 l165 0 l0 165 l-165 0 l0 -165 ZM731 102 q0 8 -5 13 q-5 5 -13 5 l-36 0 q-8 1 -13.5 -5 q-5.5 -6 -5.5 -13 l0 -165 q-1 -6 5.5 -12.5 q6.5 -6.5 13.5 -6.5 l36 0 q8 1 13 6.5 q5 5.5 5 12.5 l0 165 ZM951 65 q-1 -30 -22.5 -51.5 q-21.5 -21.5 -50.5 -21.5 l-73 0 l0 -55 q1 -38 -26.5 -64.5 q-27.5 -26.5 -65.5 -26.5 l-36 0 q-37 0 -64.5 26.5 q-27.5 26.5 -27.5 64.5 l0 55 l-219 0 l0 -55 q0 -38 -27 -64.5 q-27 -26.5 -65 -26.5 l-36 0 q-38 0 -65 26.5 q-27 26.5 -27 64.5 l0 55 l-73 0 q-30 0 -51.5 21.5 q-21.5 21.5 -21.5 51.5 l0 732 q0 30 21.5 51.5 q21.5 21.5 51.5 21.5 l805 0 q28 0 50.5 -21.5 q22.5 -21.5 22.5 -51.5 l0 -732 Z"></path></symbol><symbol id="checkbox" viewBox="0 -212 1024 1024"><path d="M1018 -57 l-154 89 q-10 -34 -36 -55.5 q-26 -21.5 -60 -21.5 l-575 0 q-26 0 -48 13.5 q-22 13.5 -35.5 35.5 q-13.5 22 -13.5 48 l0 575 q0 26 13.5 48 q13.5 22 35.5 35 q22 13 48 13 l575 0 q26 0 48 -13 q22 -13 35 -35 q13 -22 13 -48 l0 -512 l154 -172 ZM800 627 q0 14 -9 23.5 q-9 9.5 -23 9.5 l-575 0 q-15 0 -24 -9.5 q-9 -9.5 -9 -23.5 l0 -575 q0 -15 9 -23.5 q9 -8.5 24 -8.5 l575 0 q14 0 23 8.5 q9 8.5 9 23.5 l0 12 l-307 186 l-314 -102 l314 416 l307 -372 l0 435 Z"></path></symbol><symbol id="checkbox-group" viewBox="0 -212 1024 1024"><path d="M0 -90 l1024 0 l0 63 l-1024 0 l0 -63 ZM0 38 l1024 0 l0 63 l-1024 0 l0 -63 ZM961 229 l0 65 l-577 0 l0 -65 l577 0 ZM384 806 l0 -65 l577 0 l0 65 l-577 0 ZM384 485 l577 0 l0 65 l-577 0 l0 -65 ZM96 870 l-96 -129 l96 33 l160 -96 l-160 192 ZM96 613 l-96 -128 l96 33 l160 -96 l-160 191 ZM96 357 l-96 -128 l96 33 l160 -96 l-160 191 Z"></path></symbol><symbol id="radio-group" viewBox="0 -212 1024 1024"><path d="M0 -90 l1024 0 l0 63 l-1024 0 l0 -63 ZM0 38 l1024 0 l0 63 l-1024 0 l0 -63 ZM321 229 l640 0 l0 65 l-640 0 l0 -65 ZM961 550 l-640 0 l0 -65 l640 0 l0 65 ZM321 806 l0 -65 l640 0 l0 65 l-640 0 ZM96 357 q26 0 48 -13.5 q22 -13.5 35.5 -35 q13.5 -21.5 13.5 -47 q0 -25.5 -13.5 -47.5 q-13.5 -22 -35.5 -35 q-22 -13 -47.5 -13 q-25.5 0 -47.5 13 q-22 13 -35.5 35 q-13.5 22 -13.5 47.5 q0 25.5 13.5 47 q13.5 21.5 35.5 35 q22 13.5 47 13.5 ZM96 229 q15 0 23.5 9.5 q8.5 9.5 8.5 23.5 q0 14 -8.5 23 q-8.5 9 -23 9 q-14.5 0 -23 -9 q-8.5 -9 -8.5 -23 q0 -14 8.5 -23.5 q8.5 -9.5 22.5 -9.5 ZM96 620 q40 0 68.5 -27 q28.5 -27 28.5 -69 q0 -42 -28.5 -69 q-28.5 -27 -68.5 -27 q-25 0 -47 13 q-22 13 -35.5 35 q-13.5 22 -13.5 48 q0 26 13.5 48 q13.5 22 35.5 35 q22 13 47 13 ZM96 492 q14 0 23 11 q9 11 9 21 q0 10 -9 21 q-9 11 -23 11 q-14 0 -22.5 -9 q-8.5 -9 -8.5 -23 q0 -14 8.5 -23 q8.5 -9 22.5 -9 ZM96 870 q26 0 48 -13.5 q22 -13.5 35.5 -35.5 q13.5 -22 13.5 -47.5 q0 -25.5 -13.5 -47.5 q-13.5 -22 -35.5 -35 q-22 -13 -47.5 -13 q-25.5 0 -47.5 13 q-22 13 -35.5 35 q-13.5 22 -13.5 47.5 q0 25.5 13.5 47.5 q13.5 22 35.5 35.5 q22 13.5 47 13.5 ZM96 741 q15 0 23.5 9.5 q8.5 9.5 8.5 23.5 q0 14 -8.5 23 q-8.5 9 -23 9 q-14.5 0 -23 -9 q-8.5 -9 -8.5 -23 q0 -14 8.5 -23.5 q8.5 -9.5 22.5 -9.5 Z"></path></symbol><symbol id="rich-text" viewBox="0 -212 1024 1024"><path d="M961 -90 q28 0 45.5 18 q17.5 18 17.5 47 l0 768 q0 28 -17.5 46 q-17.5 18 -45.5 18 l-896 0 q-29 0 -47 -18 q-18 -18 -18 -46 l0 -768 q0 -30 18 -47.5 q18 -17.5 47 -17.5 l896 0 ZM65 64 l51 0 l0 -19 l-51 0 l0 19 ZM65 96 l51 0 l0 -19 l-51 0 l0 19 ZM961 173 l-896 0 l0 570 l896 0 l0 -570 ZM961 140 l-896 0 l0 20 l896 0 l0 -20 ZM961 109 l-46 0 l0 13 l-96 0 l0 -13 l-83 0 l0 13 l-96 0 l0 -13 l-77 0 l0 13 l-96 0 l0 -13 l-83 0 l0 13 l-89 0 l0 -13 l-84 0 l0 13 l-95 0 l0 -13 l-51 0 l0 19 l896 0 l0 -19 ZM211 77 l0 19 l77 0 l0 -19 l-77 0 ZM295 64 l0 -19 l-84 0 l0 19 l84 0 ZM384 77 l0 19 l83 0 l0 -19 l-83 0 ZM467 64 l0 -19 l-83 0 l0 19 l83 0 ZM563 77 l0 19 l77 0 l0 -19 l-77 0 ZM640 64 l0 -19 l-77 0 l0 19 l77 0 ZM736 77 l0 19 l83 0 l0 -19 l-83 0 ZM819 64 l0 -19 l-83 0 l0 19 l83 0 ZM961 77 l-52 0 l0 19 l52 0 l0 -19 ZM961 45 l-52 0 l0 19 l52 0 l0 -19 ZM961 12 l-896 0 l0 26 l51 0 l0 -12 l95 0 l0 12 l77 0 l0 -12 l96 0 l0 12 l83 0 l0 -12 l96 0 l0 12 l77 0 l0 -12 l90 0 l0 12 l83 0 l0 -12 l96 0 l0 6 l52 0 l0 -20 ZM961 -19 l-896 0 l0 19 l896 0 l0 -19 ZM833 615 l0 -65 l-640 0 l0 65 l640 0 ZM833 422 l-640 0 l0 65 l640 0 l0 -65 ZM705 294 l-512 0 l0 65 l512 0 l0 -65 Z"></path></symbol><symbol id="select" viewBox="0 -212 1024 1024"><path d="M1024 -90 l0 319 l-256 0 l0 577 q0 28 -17.5 46 q-17.5 18 -45.5 18 l-640 0 q-29 0 -47 -18 q-18 -18 -18 -46 l0 0 l0 -896 l1024 0 ZM65 166 l640 0 l0 -193 l-640 0 l0 193 ZM65 550 l640 0 l0 -193 l-640 0 l0 193 ZM705 806 l0 -193 l-640 0 l0 193 l640 0 ZM961 -27 l-193 0 l0 193 l193 0 l0 -193 ZM128 101 l65 0 l0 -63 l-65 0 l0 63 ZM128 741 l65 0 l0 -63 l-65 0 l0 63 ZM256 741 l65 0 l0 -63 l-65 0 l0 63 ZM384 741 l65 0 l0 -63 l-65 0 l0 63 ZM512 678 l0 63 l65 0 l0 -63 l-65 0 ZM128 485 l65 0 l0 -63 l-65 0 l0 63 ZM256 485 l65 0 l0 -63 l-65 0 l0 63 ZM384 485 l65 0 l0 -63 l-65 0 l0 63 ZM922 38 l-122 0 l64 70 l58 -70 ZM193 294 l0 -65 l-65 0 l0 65 l65 0 ZM321 294 l0 -65 l-65 0 l0 65 l65 0 Z"></path></symbol><symbol id="textarea" viewBox="0 -212 1024 1024"><path d="M705 550 l0 -63 l-512 0 l0 63 l512 0 ZM193 231 l640 0 l0 63 l-640 0 l0 -63 ZM833 359 l0 63 l-640 0 l0 -63 l640 0 ZM833 166 l-640 0 l0 -63 l640 0 l0 63 ZM1024 743 q0 28 -17.5 46 q-17.5 18 -45.5 18 l-896 0 q-29 0 -47 -18 q-18 -18 -18 -46 l0 -768 q0 -30 18 -47.5 q18 -17.5 47 -17.5 l896 0 q28 0 45.5 18 q17.5 18 17.5 47 l0 768 ZM65 -25 l0 768 l896 0 l0 -768 l-896 0 Z"></path></symbol><symbol id="text" viewBox="0 -212 1024 1024"><path d="M961 102 q27 0 45 19.5 q18 19.5 18 43.5 l0 384 q0 29 -17.5 47 q-17.5 18 -45.5 18 l-673 0 l0 63 l96 0 l0 65 l-256 0 l0 -65 l96 0 l0 -63 l-159 0 q-29 0 -47 -18 q-18 -18 -18 -47 l0 -384 q0 -24 18.5 -43.5 q18.5 -19.5 46.5 -19.5 l159 0 l0 -65 l-96 0 l0 -63 l256 0 l0 63 l-96 0 l0 65 l673 0 ZM224 549 l0 -384 l-159 0 l0 384 l159 0 ZM961 165 l-673 0 l0 384 l673 0 l0 -384 Z"></path></symbol><symbol id="pencil" viewBox="0 -212 1024 1024"><path d="M146 711 l0 -73 l-73 0 l0 -61 l52 -52 l134 134 l-51 52 l-62 0 ZM506 181 q0 6 -3 10 l-310 309 q-5 4 -10 4 q-13 0 -13 -12 q0 -6 4 -10 l310 -309 q4 -5 10 -5 q12 0 12 13 ZM0 546 l0 239 l238 0 l475 -476 l-238 -238 l-475 475 ZM865 126 q0 -29 -20 -52 l-134 -134 q-23 -21 -53 -21 q-30 0 -51 21 l-95 94 l238 239 l95 -95 q20 -22 20 -52 Z"></path></symbol><symbol id="file" viewBox="0 -212 1024 1024"><path d="M961 550 l0 257 l-961 0 l0 -257 l480 0 l481 0 ZM896 615 l-128 0 l0 63 l128 0 l0 -63 ZM384 166 l0 321 l193 0 l0 -321 l159 0 l-256 -256 l-256 256 l160 0 Z"></path></symbol><symbol id="hidden" viewBox="0 -212 1024 1024"><path d="M65 102 l63 0 l0 63 l-63 0 l0 -63 ZM193 102 l63 0 l0 63 l-63 0 l0 -63 ZM321 102 l63 0 l0 63 l-63 0 l0 -63 ZM449 102 l63 0 l0 63 l-63 0 l0 -63 ZM577 102 l63 0 l0 63 l-63 0 l0 -63 ZM705 102 l63 0 l0 63 l-63 0 l0 -63 ZM833 102 l63 0 l0 63 l-63 0 l0 -63 ZM0 165 l65 0 l0 65 l-65 0 l0 -65 ZM961 230 l63 0 l0 63 l-63 0 l0 -63 ZM0 293 l65 0 l0 65 l-65 0 l0 -65 ZM961 358 l63 0 l0 63 l-63 0 l0 -63 ZM0 421 l65 0 l0 65 l-65 0 l0 -65 ZM961 486 l63 0 l0 63 l-63 0 l0 -63 ZM128 549 l65 0 l0 65 l-65 0 l0 -65 ZM256 549 l65 0 l0 65 l-65 0 l0 -65 ZM384 549 l65 0 l0 65 l-65 0 l0 -65 ZM512 549 l65 0 l0 65 l-65 0 l0 -65 ZM640 549 l65 0 l0 65 l-65 0 l0 -65 ZM768 549 l65 0 l0 65 l-65 0 l0 -65 ZM896 549 l65 0 l0 65 l-65 0 l0 -65 ZM961 102 l63 0 l0 63 l-63 0 l0 -63 ZM0 549 l65 0 l0 65 l-65 0 l0 -65 Z"></path></symbol><symbol id="cancel" viewBox="0 -212 1024 1024"><path d="M0 619 q0 36 26 62 q26 26 63 26 q37 0 63 -26 l200 -199 l200 199 q26 26 62.5 26 q36.5 0 62 -25.5 q25.5 -25.5 25.5 -62.5 q0 -37 -25 -64 l-200 -199 l200 -201 q25 -26 25 -62.5 q0 -36.5 -25.5 -62.5 q-25.5 -26 -62 -26 q-36.5 0 -62.5 26 l-200 201 l-200 -201 q-27 -26 -63 -26 q-36 0 -62.5 26 q-26.5 26 -26.5 62.5 q0 36.5 27 62.5 l199 201 l-199 199 q-27 27 -27 64 Z"></path></symbol><symbol id="button" viewBox="0 -212 1024 1024"><path d="M63 102 l896 0 l0 63 l-896 0 l0 -63 ZM0 165 l65 0 l0 384 l-65 0 l0 -384 ZM65 549 l896 0 l0 65 l-896 0 l0 -65 ZM961 165 l63 0 l0 384 l-63 0 l0 -384 ZM395 262 q34 0 54 26 q20 26 20 70 q0 44 -20 69.5 q-20 25.5 -54.5 25.5 q-34.5 0 -54 -25.5 q-19.5 -25.5 -19.5 -69.5 q0 -44 19.5 -70 q19.5 -26 54.5 -26 ZM395 237 q-49 0 -78.5 32.5 q-29.5 32.5 -29.5 88 q0 55.5 29.5 88 q29.5 32.5 78.5 32.5 q49 0 78.5 -32.5 q29.5 -32.5 29.5 -88 q0 -55.5 -29.5 -88 q-29.5 -32.5 -78.5 -32.5 ZM552 474 l32 0 l0 -112 l111 112 l42 0 l-124 -125 l116 -108 l-41 0 l-104 98 l0 -98 l-32 0 l0 233 Z"></path></symbol><symbol id="header" viewBox="0 -212 1024 1024"><path d="M962 798 q14 -1 20 -13.5 q6 -12.5 6 -26.5 q-1 -16 -10 -25.5 q-9 -9.5 -23.5 -9.5 q-14.5 0 -31 -2 q-16.5 -2 -25.5 -8 q-19 -12 -19 -80 l-1 -539 q0 -78 20 -92 q7 -5 24.5 -7 q17.5 -2 30 -2 q12.5 0 22.5 -8 q10 -8 10 -26 q0 -13 -7 -26.5 q-7 -13.5 -22 -13.5 q-24 0 -73 2 q-49 2 -73.5 2 q-24.5 0 -75.5 -2 q-51 -2 -76 -2 q-14 1 -21 13.5 q-7 12.5 -7 26.5 q0 23 14 29 q14 6 38 7 q24 1 34 7 q19 13 19 92 l0 183 q0 12 -1 18 q-7 2 -21 2 l-400 0 q-15 0 -22 -2 l-1 -201 q0 -79 20 -92 q11 -5 25 -7 q14 -2 27.5 -2 q13.5 0 22.5 -8 q9 -8 9 -26 q0 -13 -7 -26.5 q-7 -13.5 -21 -13.5 q-23 0 -72 2 q-49 2 -73.5 2 q-24.5 0 -78 -2 q-53.5 -2 -80.5 -2 q-14 1 -20 13.5 q-6 12.5 -6 26.5 q-1 19 10 27 q11 8 23.5 7 q12.5 -1 30 1 q17.5 2 25.5 7 q5 2 9 10.5 q4 8.5 6 18.5 l4 20 q2 11 2 25 q0 14 1 21.5 q1 7.5 0 20.5 l-1 15 l0 465 l1 32 q0 69 -18 82 q-9 7 -24.5 9 q-15.5 2 -26.5 4 q-11 2 -20.5 10.5 q-9.5 8.5 -9.5 25.5 q0 13 7 25.5 q7 12.5 21 12.5 q24 0 72.5 -2 q48.5 -2 73.5 -2 q25 0 78 2 q53 2 80 2 q15 -1 21.5 -13.5 q6.5 -12.5 6.5 -26.5 q-1 -18 -11.5 -26.5 q-10.5 -8.5 -26 -8.5 q-15.5 0 -32.5 -2 q-17 -2 -27 -8 q-21 -12 -21 -93 l1 -230 q7 -3 30 -3 l385 0 q21 0 28 3 q1 5 1 18 l0 223 q0 69 -18 80 q-9 6 -25.5 9 q-16.5 3 -30 4 q-13.5 1 -22.5 9.5 q-9 8.5 -9 26.5 q-1 13 7 25.5 q8 12.5 21 12.5 q26 0 76 -2 q50 -2 76 -2 q26 0 76 2 q50 2 76 2 Z"></path></symbol><symbol id="paragraph" viewBox="0 -212 1024 1024"><path d="M730 -46 q0 -14 -10 -24.5 q-10 -10.5 -25 -10.5 l-273 0 q-175 0 -239 22 q-68 23 -119 91.5 q-51 68.5 -51 162.5 q0 82 37 148 q38 69 110 103 q56 26 140 33 l0 284 q0 14 10.5 24.5 q10.5 10.5 24.5 10.5 l61 0 q17 0 26 -10.5 q9 -10.5 9 -24.5 l0 -696 l82 0 l0 696 q0 14 10.5 24.5 q10.5 10.5 24.5 10.5 l61 0 q14 0 25 -10.5 q11 -10.5 11 -24.5 l0 -658 q0 -31 1 -37 q4 -15 19 -18 q2 -1 30 -1 q15 0 25 -18.5 q10 -18.5 10 -34.5 l0 -42 Z"></path></symbol><symbol id="number" viewBox="0 -212 1024 1024"><path d="M720 230 l-32 256 l208 0 l0 128 l-224 0 l-32 256 l-128 0 l32 -256 l-256 0 l-32 256 l-128 0 l32 -256 l-160 0 l0 -128 l176 0 l32 -256 l-208 0 l0 -128 l224 0 l32 -256 l128 0 l-32 256 l256 0 l32 -256 l128 0 l-32 256 l160 0 l0 128 l-176 0 ZM592 230 l-256 0 l-32 256 l256 0 l32 -256 Z"></path></symbol><symbol id="copy" viewBox="0 -212 1024 1024"><path d="M951 778 q-1 7 -6 13 q-5 6 -12 6 l-622 0 q-8 -1 -13 -6 q-5 -5 -5 -13 l0 -621 q0 -8 5 -13.5 q5 -5.5 13 -5.5 l622 0 q6 0 12 5.5 q6 5.5 6 13.5 l0 621 ZM1024 157 q0 -39 -26.5 -65.5 q-26.5 -26.5 -64.5 -26.5 l-622 0 q-37 -1 -64.5 26.5 q-27.5 27.5 -27.5 65.5 l0 621 q1 38 27.5 65 q26.5 27 64.5 27 l622 0 q38 0 64.5 -27 q26.5 -27 26.5 -65 l0 -621 ZM805 -63 q1 -38 -26.5 -64.5 q-27.5 -26.5 -65.5 -26.5 l-622 0 q-38 0 -64.5 26.5 q-26.5 26.5 -26.5 64.5 l0 621 q-1 37 26.5 64.5 q27.5 27.5 64.5 27.5 l92 0 l0 -73 l-92 0 q-6 0 -12 -5.5 q-6 -5.5 -6 -13.5 l0 -621 q1 -6 6 -12.5 q5 -6.5 12 -6.5 l622 0 q8 1 13 6.5 q5 5.5 5 12.5 l0 92 l74 0 l0 -92 Z"></path></symbol></defs></svg>